<svg xmlns="http://www.w3.org/2000/svg" viewBox="0 0 800 600" fill="none">
  <defs>
    <radialGradient id="fk-bg" cx="50%" cy="45%" r="65%">
      <stop offset="0%" stop-color="#052e16"/>
      <stop offset="100%" stop-color="#09090b"/>
    </radialGradient>
    <radialGradient id="fk-glow" cx="45%" cy="40%" r="40%">
      <stop offset="0%" stop-color="#059669" stop-opacity="0.3"/>
      <stop offset="100%" stop-color="transparent"/>
    </radialGradient>
    <filter id="fk-blur"><feGaussianBlur stdDeviation="35"/></filter>
  </defs>
  <rect width="800" height="600" fill="url(#fk-bg)"/>
  <rect width="800" height="600" fill="url(#fk-glow)"/>
  <!-- Scattered flake chips -->
  <rect x="180" y="190" width="12" height="8" rx="2" fill="#059669" opacity="0.25" transform="rotate(25 186 194)"/>
  <rect x="320" y="160" width="10" height="7" rx="1.5" fill="#10b981" opacity="0.2" transform="rotate(-15 325 163)"/>
  <rect x="480" y="200" width="14" height="9" rx="2" fill="#059669" opacity="0.3" transform="rotate(40 487 204)"/>
  <rect x="250" y="300" width="11" height="7" rx="2" fill="#34d399" opacity="0.15" transform="rotate(-30 255 303)"/>
  <rect x="550" y="280" width="13" height="8" rx="2" fill="#059669" opacity="0.22" transform="rotate(55 556 284)"/>
  <rect x="150" y="350" width="10" height="6" rx="1.5" fill="#10b981" opacity="0.18" transform="rotate(10 155 353)"/>
  <rect x="420" y="340" width="15" height="9" rx="2" fill="#059669" opacity="0.2" transform="rotate(-45 427 344)"/>
  <rect x="600" y="180" width="11" height="7" rx="2" fill="#34d399" opacity="0.16" transform="rotate(70 605 183)"/>
  <rect x="350" y="400" width="12" height="8" rx="2" fill="#10b981" opacity="0.2" transform="rotate(35 356 404)"/>
  <rect x="200" y="250" width="9" height="6" rx="1.5" fill="#059669" opacity="0.25" transform="rotate(-20 204 253)"/>
  <rect x="500" y="370" width="13" height="8" rx="2" fill="#34d399" opacity="0.18" transform="rotate(60 506 374)"/>
  <rect x="650" y="320" width="10" height="7" rx="1.5" fill="#059669" opacity="0.22" transform="rotate(-50 655 323)"/>
  <!-- Core glow -->
  <circle cx="380" cy="280" r="120" fill="#059669" opacity="0.06" filter="url(#fk-blur)"/>
  <!-- Text -->
  <text x="400" y="270" text-anchor="middle" font-family="system-ui" font-size="14" font-weight="600" fill="white" opacity="0.6" letter-spacing="8">FLAKE SYSTEM</text>
  <text x="400" y="300" text-anchor="middle" font-family="system-ui" font-size="11" fill="white" opacity="0.3" letter-spacing="4">DECORATIVE CHIPS · SEAMLESS FINISH</text>
</svg>
