<svg xmlns="http://www.w3.org/2000/svg" viewBox="0 0 800 600" fill="none">
  <defs>
    <linearGradient id="w1" x1="0" y1="0" x2="0" y2="1"><stop offset="0%" stop-color="#f0f0f0"/><stop offset="100%" stop-color="#e2e2e2"/></linearGradient>
    <linearGradient id="ep1" x1="0" y1="0" x2="1" y2="1"><stop offset="0%" stop-color="#7B8794"/><stop offset="30%" stop-color="#8B9DAF"/><stop offset="60%" stop-color="#6B7B8D"/><stop offset="100%" stop-color="#9BAABB"/></linearGradient>
    <linearGradient id="gl1" x1="0" y1="0" x2="0.4" y2="1"><stop offset="0%" stop-color="white" stop-opacity="0.12"/><stop offset="50%" stop-color="white" stop-opacity="0"/><stop offset="100%" stop-color="white" stop-opacity="0.06"/></linearGradient>
    <pattern id="fk1" x="0" y="0" width="24" height="24" patternUnits="userSpaceOnUse">
      <rect x="2" y="3" width="5" height="3" rx="1" fill="#5a6b7c" opacity="0.3" transform="rotate(15,4,4)"/>
      <rect x="13" y="14" width="6" height="3" rx="1" fill="#8a9bac" opacity="0.2" transform="rotate(-20,16,15)"/>
      <rect x="8" y="8" width="3" height="2" rx="0.5" fill="#4a5b6c" opacity="0.2" transform="rotate(45,9,9)"/>
      <rect x="17" y="3" width="4" height="2" rx="1" fill="#6a7b8c" opacity="0.22" transform="rotate(-10,19,4)"/>
      <rect x="3" y="17" width="4" height="2" rx="1" fill="#9aabbc" opacity="0.18" transform="rotate(30,5,18)"/>
    </pattern>
  </defs>
  <rect width="800" height="240" fill="url(#w1)"/>
  <polygon points="0,240 800,240 800,600 0,600" fill="url(#ep1)"/>
  <polygon points="0,240 800,240 800,600 0,600" fill="url(#fk1)"/>
  <polygon points="0,240 800,240 800,600 0,600" fill="url(#gl1)"/>
  <line x1="80" y1="275" x2="720" y2="310" stroke="white" stroke-width="0.7" opacity="0.08"/>
  <line x1="40" y1="350" x2="760" y2="375" stroke="white" stroke-width="1" opacity="0.06"/>
  <line x1="180" y1="430" x2="620" y2="445" stroke="white" stroke-width="0.6" opacity="0.05"/>
  <ellipse cx="400" cy="380" rx="220" ry="90" fill="white" opacity="0.03"/>
  <rect x="60" y="8" width="680" height="224" rx="3" fill="none" stroke="#d0d0d0" stroke-width="1.5" opacity="0.4"/>
  <line x1="60" y1="64" x2="740" y2="64" stroke="#d0d0d0" stroke-width="1" opacity="0.25"/>
  <line x1="60" y1="120" x2="740" y2="120" stroke="#d0d0d0" stroke-width="1" opacity="0.25"/>
  <line x1="60" y1="176" x2="740" y2="176" stroke="#d0d0d0" stroke-width="1" opacity="0.25"/>
  <rect x="20" y="20" width="110" height="34" rx="17" fill="#22c55e" opacity="0.95"/>
  <text x="75" y="42" font-family="system-ui,sans-serif" font-size="13" font-weight="700" fill="white" text-anchor="middle" letter-spacing="1.5">APRÈS</text>
</svg>