<svg xmlns="http://www.w3.org/2000/svg" viewBox="0 0 800 600" fill="none">
  <defs>
    <linearGradient id="bg1" x1="0" y1="0" x2="0" y2="1"><stop offset="0%" stop-color="#2a2a2a"/><stop offset="100%" stop-color="#1e1e1e"/></linearGradient>
    <linearGradient id="fl1" x1="0" y1="0" x2="0" y2="1"><stop offset="0%" stop-color="#555"/><stop offset="100%" stop-color="#444"/></linearGradient>
    <filter id="n1"><feTurbulence type="fractalNoise" baseFrequency="0.7" numOctaves="4" seed="1"/><feColorMatrix type="saturate" values="0"/><feComponentTransfer><feFuncA type="linear" slope="0.08"/></feComponentTransfer><feBlend in="SourceGraphic" mode="overlay"/></filter>
  </defs>
  <rect width="800" height="240" fill="url(#bg1)"/>
  <polygon points="0,240 800,240 800,600 0,600" fill="url(#fl1)" filter="url(#n1)"/>
  <path d="M80,280 Q150,350 130,430 Q115,500 180,570" stroke="#3a3a3a" stroke-width="3" fill="none" opacity="0.7"/>
  <path d="M320,260 Q380,320 360,400 Q345,460 400,540" stroke="#3a3a3a" stroke-width="3.5" fill="none" opacity="0.65"/>
  <path d="M560,270 Q600,340 580,420 Q555,490 620,560" stroke="#3a3a3a" stroke-width="2.5" fill="none" opacity="0.6"/>
  <path d="M60,380 L280,370 Q400,385 540,372 L740,382" stroke="#3a3a3a" stroke-width="2" fill="none" opacity="0.5"/>
  <path d="M200,290 Q250,310 220,360" stroke="#3d3d3d" stroke-width="1.5" fill="none" opacity="0.5"/>
  <ellipse cx="220" cy="370" rx="70" ry="30" fill="#4a4234" opacity="0.45"/>
  <ellipse cx="500" cy="410" rx="90" ry="40" fill="#3d3d35" opacity="0.4"/>
  <ellipse cx="130" cy="500" rx="55" ry="25" fill="#454540" opacity="0.4"/>
  <ellipse cx="680" cy="460" rx="50" ry="22" fill="#464238" opacity="0.35"/>
  <rect x="350" y="440" width="110" height="65" rx="8" fill="#3a3530" opacity="0.3"/>
  <rect x="60" y="8" width="680" height="224" rx="3" fill="none" stroke="#3d3d3d" stroke-width="1.5" opacity="0.4"/>
  <line x1="60" y1="64" x2="740" y2="64" stroke="#3d3d3d" stroke-width="1" opacity="0.3"/>
  <line x1="60" y1="120" x2="740" y2="120" stroke="#3d3d3d" stroke-width="1" opacity="0.3"/>
  <line x1="60" y1="176" x2="740" y2="176" stroke="#3d3d3d" stroke-width="1" opacity="0.3"/>
  <rect x="20" y="20" width="110" height="34" rx="17" fill="#dc2626" opacity="0.95"/>
  <text x="75" y="42" font-family="system-ui,sans-serif" font-size="13" font-weight="700" fill="white" text-anchor="middle" letter-spacing="1.5">AVANT</text>
</svg>